<?xml version="1.0" ?><!DOCTYPE svg  PUBLIC '-//W3C//DTD SVG 1.1//EN'  'http://www.w3.org/Graphics/SVG/1.1/DTD/svg11.dtd'><svg enable-background="new 0 0 128 128" height="128px" id="Layer_1" version="1.1" viewBox="0 0 128 128" width="128px" xml:space="preserve" xmlns="http://www.w3.org/2000/svg" xmlns:xlink="http://www.w3.org/1999/xlink"><polygon fill="#3B97D3" points="44.1,37 40.5,33.4 45.6,31.8 31.3,26.2 36.5,40.7 38.5,35.3 42,39 "/><circle cx="65" cy="96" fill="#2C3E50" r="3"/><path d="M76.5,116H67v-5.5c0-1.1-0.9-2-2-2s-2,0.9-2,2v5.5h-9.5c-1.1,0-2,0.9-2,2s0.9,2,2,2h23c1.1,0,2-0.9,2-2  S77.6,116,76.5,116z" fill="#2C3E50"/><path d="M97,56v32H33V56H97 M99,54H31v36h68V54L99,54z" fill="#3B97D3"/><path d="M20.8,50.7c-3.1-0.9-5.6-3.3-6.5-6.5c-1.4-5,1.5-10.2,6.5-11.6c0.1,0,0.1,0,0.2,0l2.5-0.6l-1.2-2.2  c-0.3-0.6-0.6-1.3-0.8-1.9C20.1,22.7,23,17.4,28,16c0.8-0.2,1.7-0.4,2.6-0.4h0c3.7,0,7.1,2.2,8.6,5.6l0.9,2l1.9-1.1  c0.9-0.5,1.8-0.9,2.7-1.2c1-0.3,2.1-0.4,3.2-0.4c5.2,0,9.9,3.5,11.3,8.5c1.6,5.7-1.3,11.6-6.6,13.9h3.9c4.2-3.3,6.2-9,4.6-14.5  c-1.7-6-7.2-10-13.2-10c-1.2,0-2.5,0.2-3.7,0.5c-1.1,0.3-2.2,0.8-3.2,1.4c-1.9-4.1-6-6.8-10.5-6.8c-1,0-2.1,0.1-3.1,0.4  c-6.1,1.7-9.7,8.1-7.9,14.2c0.2,0.8,0.6,1.6,1,2.3c-0.1,0-0.1,0-0.2,0c-6.1,1.7-9.6,8-7.9,14.1c1.1,3.9,4.2,6.8,7.8,7.8  C20.4,51.9,20.6,51.3,20.8,50.7z" fill="#3B97D3"/><path d="M67.1,43h2.1l3.1-13.4l0.5-1.9l-1.9-0.5l-3.3-0.8l0.8-3.4l3.3,0.8l1.9,0.5l0.5-1.9l1.1-4.9  c1.1-4.7,3.2-7.3,10.1-5.6l4.3,1L88.7,16L87,15.6c-3.7-0.9-5.7,0.3-6.5,3.7l-1,4.3L79,25.5L81,26l5,1.2l-1.2,3.3l-4.6-1.1l-1.9-0.5  l-0.5,1.9L74.9,43H77l2.7-11.7l6.3,1.5l2.6-7.1L81.4,24l1-4.3c0.5-1.9,1.1-2.9,4.1-2.2l3.7,0.9l1.7-7.1l-6.2-1.5  c-7.7-1.8-11.1,1-12.5,7.1L72,21.8l-5.2-1.2l-1.7,7.3l5.2,1.2L67.1,43z" fill="#3B97D3"/><path d="M115.5,38c0-0.8-0.1-1.6-0.2-2.4l2.5-1.3c-0.5-2.1-1.6-4-3-5.7l-2.5,1.3c-0.6-0.6-1.2-1.1-1.8-1.5l0.8-2.7  c-0.9-0.5-1.9-1-2.9-1.3c-1.1-0.3-2.1-0.5-3.2-0.6l-0.8,2.7c-0.1,0-0.1,0-0.2,0c-0.7,0-1.5,0.1-2.2,0.2l-1.3-2.5  c-2.1,0.5-4,1.6-5.7,3l1.3,2.5c-0.6,0.6-1.1,1.2-1.5,1.8l-2.7-0.8c-0.5,0.9-1,1.9-1.3,2.9c-0.3,1.1-0.5,2.1-0.6,3.2l2.7,0.8  c0,0.8,0.1,1.6,0.2,2.4l-2.5,1.3c0.1,0.6,0.3,1.1,0.6,1.7h2.2c-0.1-0.2-0.2-0.5-0.3-0.7l1-0.5l1.3-0.7l-0.3-1.5  c-0.1-0.6-0.2-1.3-0.2-2l0-1.5l-1.4-0.4l-1-0.3c0.1-0.4,0.2-0.8,0.3-1.2c0.1-0.4,0.3-0.8,0.4-1.1l1,0.3l1.4,0.4l0.8-1.2  c0.4-0.6,0.8-1.1,1.3-1.5l1.1-1l-0.7-1.3l-0.5-1c0.7-0.4,1.4-0.8,2.1-1.1l0.5,1l0.7,1.3l1.5-0.3c0.6-0.1,1.2-0.2,1.8-0.2l0.2,0  l1.5,0l0.4-1.4l0.3-1c0.4,0.1,0.8,0.2,1.2,0.3s0.8,0.3,1.1,0.4l-0.3,1l-0.4,1.4l1.2,0.8c0.6,0.4,1.1,0.8,1.5,1.3l1,1.1l1.3-0.7  l1-0.5c0.4,0.7,0.8,1.4,1.1,2.1l-1,0.5l-1.3,0.7l0.3,1.5c0.1,0.6,0.2,1.3,0.2,2l0,1.5l1.4,0.4l1,0.3c-0.1,0.4-0.2,0.8-0.3,1.2  c-0.1,0.4-0.3,0.8-0.4,1.1l-1-0.3l-1.4-0.4l-0.8,1.2c-0.4,0.6-0.8,1.1-1.3,1.5l-1.1,1l0.7,1.3l0.5,1c-0.7,0.4-1.4,0.8-2.1,1.1  l-0.5-1l-0.7-1.3l-0.7,0.1c1.1,1.2,2,2.5,2.5,4.1c1.5-0.6,2.9-1.4,4.1-2.5l-1.3-2.5c0.6-0.6,1.1-1.2,1.5-1.8l2.7,0.8  c0.5-0.9,1-1.9,1.3-2.9c0.3-1.1,0.5-2.1,0.6-3.2L115.5,38z" fill="#3B97D3"/><path d="M98,49c3.3,0,6,2.7,6,6v41c0,3.3-2.7,6-6,6H32c-3.3,0-6-2.7-6-6V55c0-3.3,2.7-6,6-6H98 M98,45H32  c-5.5,0-10,4.5-10,10v41c0,5.5,4.5,10,10,10h66c5.5,0,10-4.5,10-10V55C108,49.5,103.5,45,98,45L98,45z" fill="#2C3E50"/><circle cx="104.2" cy="37.4" fill="#3B97D3" r="3.3"/><g><path d="M43.6,80.7l1.2-2.9c1.3,0.9,2.6,1.4,3.8,1.4c1.9,0,2.9-0.7,2.9-2c0-0.6-0.2-1.2-0.7-1.8   c-0.5-0.6-1.4-1.2-2.8-1.9c-1.4-0.7-2.4-1.3-2.9-1.8c-0.5-0.5-0.9-1-1.1-1.6c-0.3-0.6-0.4-1.3-0.4-2.1c0-1.4,0.5-2.6,1.6-3.6   s2.4-1.4,4-1.4c2.1,0,3.7,0.4,4.7,1.2l-1,2.8c-1.2-0.8-2.4-1.2-3.7-1.2c-0.8,0-1.3,0.2-1.8,0.6s-0.6,0.9-0.6,1.6   c0,1.1,1.2,2.2,3.5,3.3c1.2,0.6,2.1,1.2,2.7,1.7c0.5,0.5,1,1.1,1.3,1.8c0.3,0.7,0.4,1.4,0.4,2.3c0,1.5-0.6,2.7-1.8,3.7   c-1.2,1-2.8,1.5-4.8,1.5C46.6,82.1,45,81.6,43.6,80.7z" fill="#3B97D3"/><path d="M61,66.1v4.3h6.1v2.8H61v5.6h8.4v2.9H57.7V63.2h11.8v2.9H61z" fill="#3B97D3"/><path d="M71.6,72.3c0-2.6,0.7-4.9,2.2-6.7c1.4-1.8,3.4-2.7,5.8-2.7c2.7,0,4.7,0.8,6.1,2.5c1.4,1.7,2.1,4,2.1,7   c0,3-0.7,5.4-2.2,7.1c-1.5,1.8-3.6,2.6-6.3,2.6c-2.5,0-4.4-0.9-5.7-2.6C72.3,77.7,71.6,75.4,71.6,72.3z M75,72.3   c0,2.2,0.4,3.8,1.1,5c0.7,1.2,1.8,1.8,3.2,1.8c1.6,0,2.9-0.6,3.8-1.7c0.9-1.2,1.3-2.9,1.3-5.1c0-4.3-1.6-6.5-4.8-6.5   c-1.5,0-2.6,0.6-3.4,1.8C75.4,68.8,75,70.3,75,72.3z" fill="#3B97D3"/></g></svg>